<?xml version="1.0" standalone="no"?>
<!DOCTYPE svg PUBLIC "-//W3C//DTD SVG 20010904//EN"
 "http://www.w3.org/TR/2001/REC-SVG-20010904/DTD/svg10.dtd">
<svg version="1.0" xmlns="http://www.w3.org/2000/svg"
 width="1800.000000pt" height="1800.000000pt" viewBox="0 0 1800.000000 1800.000000"
 preserveAspectRatio="xMidYMid meet">
<metadata>
Created by potrace 1.14, written by Peter Selinger 2001-2017
</metadata>
<g transform="translate(0.000000,1800.000000) scale(0.100000,-0.100000)"
fill="#000000" stroke="none">
<path d="M8778 17995 c-2 -1 -81 -6 -177 -9 -96 -4 -177 -9 -180 -10 -3 -2
-54 -7 -112 -10 -58 -4 -117 -8 -130 -11 -13 -2 -55 -6 -94 -10 -38 -3 -79 -8
-90 -10 -11 -2 -45 -7 -75 -10 -51 -5 -67 -7 -145 -20 -16 -3 -48 -7 -70 -10
-65 -8 -360 -61 -495 -90 -337 -70 -742 -184 -1124 -315 -1029 -353 -2059
-949 -2906 -1685 -235 -203 -551 -510 -741 -720 -34 -38 -65 -72 -69 -75 -3
-3 -34 -39 -70 -80 -35 -41 -67 -77 -70 -80 -5 -4 -136 -165 -228 -280 -16
-19 -76 -98 -133 -175 -340 -454 -612 -898 -858 -1400 -142 -288 -186 -389
-295 -665 -284 -723 -465 -1429 -560 -2180 -26 -202 -30 -237 -46 -430 -31
-358 -33 -1055 -5 -1345 2 -22 7 -78 10 -125 3 -47 8 -98 10 -115 2 -16 9 -75
15 -130 39 -363 120 -803 215 -1180 313 -1230 856 -2343 1629 -3335 72 -93
275 -339 296 -360 3 -3 41 -45 85 -95 662 -748 1537 -1438 2435 -1920 131 -71
505 -255 585 -288 33 -14 89 -39 125 -55 130 -59 403 -165 610 -237 199 -69
737 -226 829 -241 14 -3 40 -9 56 -14 66 -19 423 -91 581 -116 20 -3 45 -7 56
-9 99 -19 475 -65 653 -80 39 -3 90 -8 115 -10 267 -26 1039 -26 1290 -1 19 2
73 7 120 10 90 7 108 9 260 26 130 15 228 28 272 36 9 1 38 5 65 9 26 3 71 10
98 15 28 5 91 17 140 25 499 89 1088 251 1560 428 938 352 1825 868 2587 1504
261 217 432 376 682 632 187 191 174 178 328 353 372 424 694 868 980 1353 29
50 57 98 63 107 177 299 443 859 577 1213 237 624 379 1149 493 1825 4 19 8
51 11 70 2 19 9 62 14 95 5 33 12 80 15 105 32 253 33 284 33 1145 0 847 -2
924 -32 1140 -3 22 -8 60 -11 85 -3 25 -10 70 -15 100 -5 30 -12 75 -15 100
-4 25 -20 115 -35 200 -122 662 -311 1292 -572 1905 -451 1058 -1095 2010
-1914 2829 -167 167 -240 236 -439 411 -24 21 -305 254 -389 322 -11 9 -79 60
-150 113 -783 580 -1635 1024 -2511 1310 -104 34 -199 66 -210 70 -135 54
-823 219 -1105 265 -52 8 -106 17 -120 20 -49 8 -156 25 -200 30 -25 3 -56 7
-70 10 -14 2 -54 7 -90 10 -36 3 -76 8 -90 10 -14 2 -54 7 -90 10 -36 4 -81 8
-100 10 -19 2 -87 7 -150 10 -63 4 -131 9 -150 11 -39 6 -756 14 -762 9z"/>
</g>
</svg>
